<svg width="58" height="32" viewBox="0 0 58 32" fill="none" xmlns="http://www.w3.org/2000/svg">
<path d="M3.728 6.56C4.048 6.06933 4.448 5.68533 4.928 5.408C5.408 5.12 5.94133 4.976 6.528 4.976V7.872H5.776C5.09333 7.872 4.58133 8.02133 4.24 8.32C3.89867 8.608 3.728 9.12 3.728 9.856V14H0.992V5.072H3.728V6.56ZM8.71175 4.144C8.23175 4.144 7.83708 4.00533 7.52775 3.728C7.22908 3.44 7.07975 3.088 7.07975 2.672C7.07975 2.24533 7.22908 1.89333 7.52775 1.616C7.83708 1.328 8.23175 1.184 8.71175 1.184C9.18108 1.184 9.56508 1.328 9.86375 1.616C10.1731 1.89333 10.3278 2.24533 10.3278 2.672C10.3278 3.088 10.1731 3.44 9.86375 3.728C9.56508 4.00533 9.18108 4.144 8.71175 4.144ZM10.0718 5.072V14H7.33575V5.072H10.0718ZM11.0105 9.536C11.0105 8.608 11.1972 7.79733 11.5705 7.104C11.9545 6.41067 12.4825 5.87733 13.1545 5.504C13.8372 5.13067 14.6158 4.944 15.4905 4.944C16.6105 4.944 17.5438 5.23733 18.2905 5.824C19.0478 6.41067 19.5438 7.23733 19.7785 8.304H16.8665C16.6212 7.62133 16.1465 7.28 15.4425 7.28C14.9412 7.28 14.5412 7.47733 14.2425 7.872C13.9438 8.256 13.7945 8.81067 13.7945 9.536C13.7945 10.2613 13.9438 10.8213 14.2425 11.216C14.5412 11.6 14.9412 11.792 15.4425 11.792C16.1465 11.792 16.6212 11.4507 16.8665 10.768H19.7785C19.5438 11.8133 19.0478 12.6347 18.2905 13.232C17.5332 13.8293 16.5998 14.128 15.4905 14.128C14.6158 14.128 13.8372 13.9413 13.1545 13.568C12.4825 13.1947 11.9545 12.6613 11.5705 11.968C11.1972 11.2747 11.0105 10.464 11.0105 9.536ZM26.23 4.976C27.254 4.976 28.0753 5.31733 28.694 6C29.3127 6.672 29.622 7.6 29.622 8.784V14H26.902V9.152C26.902 8.55467 26.7473 8.09067 26.438 7.76C26.1287 7.42933 25.7127 7.264 25.19 7.264C24.6673 7.264 24.2513 7.42933 23.942 7.76C23.6327 8.09067 23.478 8.55467 23.478 9.152V14H20.742V2.16H23.478V6.272C23.7553 5.87733 24.134 5.56267 24.614 5.328C25.094 5.09333 25.6327 4.976 26.23 4.976ZM30.4793 9.52C30.4793 8.60267 30.6499 7.79733 30.9913 7.104C31.3433 6.41067 31.8179 5.87733 32.4153 5.504C33.0126 5.13067 33.6793 4.944 34.4153 4.944C35.0446 4.944 35.5939 5.072 36.0633 5.328C36.5433 5.584 36.9113 5.92 37.1673 6.336V5.072H39.9033V14H37.1673V12.736C36.9006 13.152 36.5273 13.488 36.0473 13.744C35.5779 14 35.0286 14.128 34.3993 14.128C33.6739 14.128 33.0126 13.9413 32.4153 13.568C31.8179 13.184 31.3433 12.6453 30.9913 11.952C30.6499 11.248 30.4793 10.4373 30.4793 9.52ZM37.1673 9.536C37.1673 8.85333 36.9753 8.31467 36.5913 7.92C36.2179 7.52533 35.7593 7.328 35.2153 7.328C34.6713 7.328 34.2073 7.52533 33.8233 7.92C33.4499 8.304 33.2633 8.83733 33.2633 9.52C33.2633 10.2027 33.4499 10.7467 33.8233 11.152C34.2073 11.5467 34.6713 11.744 35.2153 11.744C35.7593 11.744 36.2179 11.5467 36.5913 11.152C36.9753 10.7573 37.1673 10.2187 37.1673 9.536ZM44.1186 6.56C44.4386 6.06933 44.8386 5.68533 45.3186 5.408C45.7986 5.12 46.332 4.976 46.9186 4.976V7.872H46.1666C45.484 7.872 44.972 8.02133 44.6306 8.32C44.2893 8.608 44.1186 9.12 44.1186 9.856V14H41.3826V5.072H44.1186V6.56ZM47.1824 9.52C47.1824 8.60267 47.353 7.79733 47.6944 7.104C48.0464 6.41067 48.521 5.87733 49.1184 5.504C49.7157 5.13067 50.3824 4.944 51.1184 4.944C51.705 4.944 52.2384 5.06667 52.7184 5.312C53.209 5.55733 53.593 5.888 53.8704 6.304V2.16H56.6064V14H53.8704V12.72C53.6144 13.1467 53.2464 13.488 52.7664 13.744C52.297 14 51.7477 14.128 51.1184 14.128C50.3824 14.128 49.7157 13.9413 49.1184 13.568C48.521 13.184 48.0464 12.6453 47.6944 11.952C47.353 11.248 47.1824 10.4373 47.1824 9.52ZM53.8704 9.536C53.8704 8.85333 53.6784 8.31467 53.2944 7.92C52.921 7.52533 52.4624 7.328 51.9184 7.328C51.3744 7.328 50.9104 7.52533 50.5264 7.92C50.153 8.304 49.9664 8.83733 49.9664 9.52C49.9664 10.2027 50.153 10.7467 50.5264 11.152C50.9104 11.5467 51.3744 11.744 51.9184 11.744C52.4624 11.744 52.921 11.5467 53.2944 11.152C53.6784 10.7573 53.8704 10.2187 53.8704 9.536ZM6.48 20.976C7.504 20.976 8.32533 21.3173 8.944 22C9.56267 22.672 9.872 23.6 9.872 24.784V30H7.152V25.152C7.152 24.5547 6.99733 24.0907 6.688 23.76C6.37867 23.4293 5.96267 23.264 5.44 23.264C4.91733 23.264 4.50133 23.4293 4.192 23.76C3.88267 24.0907 3.728 24.5547 3.728 25.152V30H0.992V18.16H3.728V22.272C4.00533 21.8773 4.384 21.5627 4.864 21.328C5.344 21.0933 5.88267 20.976 6.48 20.976ZM10.7293 25.52C10.7293 24.6027 10.8999 23.7973 11.2413 23.104C11.5933 22.4107 12.0679 21.8773 12.6653 21.504C13.2626 21.1307 13.9293 20.944 14.6653 20.944C15.2946 20.944 15.8439 21.072 16.3133 21.328C16.7933 21.584 17.1613 21.92 17.4173 22.336V21.072H20.1533V30H17.4173V28.736C17.1506 29.152 16.7773 29.488 16.2973 29.744C15.8279 30 15.2786 30.128 14.6493 30.128C13.9239 30.128 13.2626 29.9413 12.6653 29.568C12.0679 29.184 11.5933 28.6453 11.2413 27.952C10.8999 27.248 10.7293 26.4373 10.7293 25.52ZM17.4173 25.536C17.4173 24.8533 17.2253 24.3147 16.8413 23.92C16.4679 23.5253 16.0093 23.328 15.4653 23.328C14.9213 23.328 14.4573 23.5253 14.0733 23.92C13.6999 24.304 13.5133 24.8373 13.5133 25.52C13.5133 26.2027 13.6999 26.7467 14.0733 27.152C14.4573 27.5467 14.9213 27.744 15.4653 27.744C16.0093 27.744 16.4679 27.5467 16.8413 27.152C17.2253 26.7573 17.4173 26.2187 17.4173 25.536ZM24.3686 22.56C24.6886 22.0693 25.0886 21.6853 25.5686 21.408C26.0486 21.12 26.582 20.976 27.1686 20.976V23.872H26.4166C25.734 23.872 25.222 24.0213 24.8806 24.32C24.5393 24.608 24.3686 25.12 24.3686 25.856V30H21.6326V21.072H24.3686V22.56ZM30.7124 22.56C31.0324 22.0693 31.4324 21.6853 31.9124 21.408C32.3924 21.12 32.9257 20.976 33.5124 20.976V23.872H32.7604C32.0777 23.872 31.5657 24.0213 31.2244 24.32C30.883 24.608 30.7124 25.12 30.7124 25.856V30H27.9764V21.072H30.7124V22.56ZM35.6961 20.144C35.2161 20.144 34.8215 20.0053 34.5121 19.728C34.2135 19.44 34.0641 19.088 34.0641 18.672C34.0641 18.2453 34.2135 17.8933 34.5121 17.616C34.8215 17.328 35.2161 17.184 35.6961 17.184C36.1655 17.184 36.5495 17.328 36.8481 17.616C37.1575 17.8933 37.3121 18.2453 37.3121 18.672C37.3121 19.088 37.1575 19.44 36.8481 19.728C36.5495 20.0053 36.1655 20.144 35.6961 20.144ZM37.0561 21.072V30H34.3201V21.072H37.0561ZM42.1709 30.128C41.3922 30.128 40.6989 29.9947 40.0909 29.728C39.4829 29.4613 39.0029 29.0987 38.6509 28.64C38.2989 28.1707 38.1015 27.648 38.0589 27.072H40.7629C40.7949 27.3813 40.9389 27.632 41.1949 27.824C41.4509 28.016 41.7655 28.112 42.1389 28.112C42.4802 28.112 42.7415 28.048 42.9229 27.92C43.1149 27.7813 43.2109 27.6053 43.2109 27.392C43.2109 27.136 43.0775 26.9493 42.8109 26.832C42.5442 26.704 42.1122 26.5653 41.5149 26.416C40.8749 26.2667 40.3415 26.112 39.9149 25.952C39.4882 25.7813 39.1202 25.52 38.8109 25.168C38.5015 24.8053 38.3469 24.32 38.3469 23.712C38.3469 23.2 38.4855 22.736 38.7629 22.32C39.0509 21.8933 39.4669 21.5573 40.0109 21.312C40.5655 21.0667 41.2215 20.944 41.9789 20.944C43.0989 20.944 43.9789 21.2213 44.6189 21.776C45.2695 22.3307 45.6429 23.0667 45.7389 23.984H43.2109C43.1682 23.6747 43.0295 23.4293 42.7949 23.248C42.5709 23.0667 42.2722 22.976 41.8989 22.976C41.5789 22.976 41.3335 23.04 41.1629 23.168C40.9922 23.2853 40.9069 23.4507 40.9069 23.664C40.9069 23.92 41.0402 24.112 41.3069 24.24C41.5842 24.368 42.0109 24.496 42.5869 24.624C43.2482 24.7947 43.7869 24.9653 44.2029 25.136C44.6189 25.296 44.9815 25.5627 45.2909 25.936C45.6109 26.2987 45.7762 26.7893 45.7869 27.408C45.7869 27.9307 45.6375 28.4 45.3389 28.816C45.0509 29.2213 44.6295 29.5413 44.0749 29.776C43.5309 30.0107 42.8962 30.128 42.1709 30.128Z" fill="#1D262B"/>
<line x1="49" y1="29" x2="57" y2="29" stroke="#1D262B" stroke-width="2"/>
</svg>
